<svg xmlns="http://www.w3.org/2000/svg" version="1.1" xmlns:xlink="http://www.w3.org/1999/xlink" xmlns:svgjs="http://svgjs.dev/svgjs" width="1000" height="999" viewBox="0 0 1000 999"><g transform="matrix(1,0,0,1,-0.215743440233382,-0.21552769679306039)"><svg viewBox="0 0 343 343" data-background-color="#ffffff" preserveAspectRatio="xMidYMid meet" height="999" width="1000" xmlns="http://www.w3.org/2000/svg" xmlns:xlink="http://www.w3.org/1999/xlink"><g id="tight-bounds" transform="matrix(1,0,0,1,0.0740000000000407,0.07400000000001228)"><svg viewBox="0 0 342.85155851775386 342.85155851775386" height="342.85155851775386" width="342.85155851775386"><g><svg></svg></g><g><svg viewBox="0 0 342.85155851775386 342.85155851775386" height="342.85155851775386" width="342.85155851775386"><g><path d="M0 171.426c0-94.676 76.75-171.426 171.426-171.426 94.676 0 171.426 76.75 171.426 171.426 0 94.676-76.75 171.426-171.426 171.426-94.676 0-171.426-76.75-171.426-171.426zM171.426 340.409c93.327 0 168.983-75.656 168.983-168.983 0-93.327-75.656-168.983-168.983-168.983-93.327 0-168.983 75.656-168.983 168.983 0 93.327 75.656 168.983 168.983 168.983z" data-fill-palette-color="tertiary" fill="#50a060" stroke="transparent"></path><ellipse rx="164.56874808852186" ry="164.56874808852186" cx="171.42577925887693" cy="171.42577925887693" fill="#50a060" stroke="transparent" stroke-width="0" fill-opacity="1" data-fill-palette-color="tertiary"></ellipse></g><g transform="matrix(1,0,0,1,64.84655864529837,114.17328606086642)"><svg viewBox="0 0 213.1584412271571 114.50498639602101" height="114.50498639602101" width="213.1584412271571"><g><svg viewBox="0 0 213.1584412271571 114.50498639602101" height="114.50498639602101" width="213.1584412271571"><g><svg viewBox="0 0 213.1584412271571 114.50498639602101" height="114.50498639602101" width="213.1584412271571"><g transform="matrix(1,0,0,1,0,69.11854339538299)"><svg viewBox="0 0 213.1584412271571 45.386443000638025" height="45.386443000638025" width="213.1584412271571"><g id="textblocktransform"><svg viewBox="0 0 213.1584412271571 45.386443000638025" height="45.386443000638025" width="213.1584412271571" id="textblock"><g><svg viewBox="0 0 213.1584412271571 27.086527933806163" height="27.086527933806163" width="213.1584412271571"><g transform="matrix(1,0,0,1,0,0)"><svg width="213.1584412271571" viewBox="3.83 -37.5 298.92 37.99" height="27.086527933806163" data-palette-color="#ffffff"><path d="M11.79 0L3.83 0 3.83-35.55 12.3-35.55Q18.53-35.55 21.97-31.65 25.42-27.76 25.42-20.7L25.42-20.7 25.42-14.75Q25.42-7.69 21.92-3.85 18.43 0 11.79 0L11.79 0ZM12.3-31.69L8.3-31.69 8.3-3.83 11.89-3.83Q16.6-3.83 18.77-6.53 20.95-9.23 21-14.53L21-14.53 21-20.83Q21-26.44 18.84-29.06 16.67-31.69 12.3-31.69L12.3-31.69ZM44.63-10.4L44.63-35.55 49.12-35.55 49.12-10.38Q49.12-5.27 46.52-2.39 43.92 0.49 39.52 0.49L39.52 0.49Q35.01 0.49 32.49-2.25 29.98-4.98 29.98-9.81L29.98-9.81 34.45-9.81Q34.45-6.76 35.79-5.05 37.13-3.34 39.52-3.34L39.52-3.34Q41.84-3.34 43.23-5.2 44.63-7.06 44.63-10.4L44.63-10.4ZM78.46 0L67.99 0 67.99-35.55 78.12-35.55Q82.98-35.55 85.43-33.18 87.88-30.81 87.88-26.07L87.88-26.07Q87.88-23.58 86.64-21.68 85.39-19.78 83.27-18.73L83.27-18.73Q85.71-17.99 87.14-15.72 88.57-13.45 88.57-10.25L88.57-10.25Q88.57-5.47 85.94-2.73 83.32 0 78.46 0L78.46 0ZM78.65-16.63L72.45-16.63 72.45-3.83 78.56-3.83Q81.1-3.83 82.59-5.51 84.07-7.18 84.07-10.21L84.07-10.21Q84.07-16.63 78.65-16.63L78.65-16.63ZM72.45-31.69L72.45-20.39 78.19-20.39Q80.51-20.39 81.94-21.95 83.37-23.51 83.37-26.1L83.37-26.1Q83.37-29.03 82.07-30.36 80.78-31.69 78.12-31.69L78.12-31.69 72.45-31.69ZM104.09 0.49L104.09 0.49Q99.16 0.49 96.52-2.45 93.89-5.4 93.84-11.08L93.84-11.08 93.84-14.28Q93.84-20.19 96.41-23.55 98.99-26.9 103.6-26.9L103.6-26.9Q108.24-26.9 110.54-23.95 112.83-21 112.88-14.75L112.88-14.75 112.88-11.91 98.13-11.91 98.13-11.3Q98.13-7.06 99.73-5.13 101.33-3.2 104.34-3.2L104.34-3.2Q106.24-3.2 107.69-3.92 109.15-4.64 110.41-6.2L110.41-6.2 112.66-3.47Q109.85 0.49 104.09 0.49ZM103.6-23.19L103.6-23.19Q100.92-23.19 99.62-21.35 98.33-19.51 98.16-15.63L98.16-15.63 108.56-15.63 108.56-16.21Q108.39-19.97 107.2-21.58 106.02-23.19 103.6-23.19ZM136.14 0L131.65 0Q131.26-0.85 131.09-2.88L131.09-2.88Q128.8 0.49 125.23 0.49L125.23 0.49Q121.64 0.49 119.63-1.53 117.61-3.54 117.61-7.2L117.61-7.2Q117.61-11.23 120.35-13.6 123.08-15.97 127.84-16.02L127.84-16.02 131.02-16.02 131.02-18.82Q131.02-21.19 129.97-22.19 128.92-23.19 126.77-23.19L126.77-23.19Q124.82-23.19 123.6-22.03 122.38-20.87 122.38-19.09L122.38-19.09 118.05-19.09Q118.05-21.12 119.25-22.96 120.45-24.8 122.47-25.85 124.5-26.9 126.99-26.9L126.99-26.9Q131.04-26.9 133.15-24.89 135.27-22.88 135.31-19.02L135.31-19.02 135.31-5.69Q135.34-2.64 136.14-0.39L136.14-0.39 136.14 0ZM125.89-3.44L125.89-3.44Q127.48-3.44 128.92-4.32 130.36-5.2 131.02-6.52L131.02-6.52 131.02-12.82 128.58-12.82Q125.5-12.77 123.72-11.44 121.94-10.11 121.94-7.71L121.94-7.71Q121.94-5.47 122.84-4.46 123.74-3.44 125.89-3.44ZM143.37-32.81L147.67-32.81 147.67-26.42 151.65-26.42 151.65-22.92 147.67-22.92 147.67-6.54Q147.67-4.98 148.18-4.17 148.69-3.37 149.94-3.37L149.94-3.37Q150.79-3.37 151.67-3.66L151.67-3.66 151.62 0Q150.16 0.49 148.62 0.49L148.62 0.49Q146.05 0.49 144.71-1.34 143.37-3.17 143.37-6.52L143.37-6.52 143.37-22.92 139.34-22.92 139.34-26.42 143.37-26.42 143.37-32.81ZM179.3 0L168.83 0 168.83-35.55 178.96-35.55Q183.82-35.55 186.27-33.18 188.73-30.81 188.73-26.07L188.73-26.07Q188.73-23.58 187.48-21.68 186.23-19.78 184.11-18.73L184.11-18.73Q186.55-17.99 187.98-15.72 189.41-13.45 189.41-10.25L189.41-10.25Q189.41-5.47 186.78-2.73 184.16 0 179.3 0L179.3 0ZM179.5-16.63L173.3-16.63 173.3-3.83 179.4-3.83Q181.94-3.83 183.43-5.51 184.92-7.18 184.92-10.21L184.92-10.21Q184.92-16.63 179.5-16.63L179.5-16.63ZM173.3-31.69L173.3-20.39 179.03-20.39Q181.35-20.39 182.78-21.95 184.21-23.51 184.21-26.1L184.21-26.1Q184.21-29.03 182.91-30.36 181.62-31.69 178.96-31.69L178.96-31.69 173.3-31.69ZM200.15-37.5L200.15 0 195.83 0 195.83-37.5 200.15-37.5ZM225.02 0L220.53 0Q220.14-0.85 219.97-2.88L219.97-2.88Q217.68 0.49 214.11 0.49L214.11 0.49Q210.52 0.49 208.51-1.53 206.49-3.54 206.49-7.2L206.49-7.2Q206.49-11.23 209.23-13.6 211.96-15.97 216.72-16.02L216.72-16.02 219.9-16.02 219.9-18.82Q219.9-21.19 218.85-22.19 217.8-23.19 215.65-23.19L215.65-23.19Q213.7-23.19 212.48-22.03 211.25-20.87 211.25-19.09L211.25-19.09 206.93-19.09Q206.93-21.12 208.13-22.96 209.33-24.8 211.35-25.85 213.38-26.9 215.87-26.9L215.87-26.9Q219.92-26.9 222.03-24.89 224.14-22.88 224.19-19.02L224.19-19.02 224.19-5.69Q224.22-2.64 225.02-0.39L225.02-0.39 225.02 0ZM214.77-3.44L214.77-3.44Q216.36-3.44 217.8-4.32 219.24-5.2 219.9-6.52L219.9-6.52 219.9-12.82 217.46-12.82Q214.38-12.77 212.6-11.44 210.81-10.11 210.81-7.71L210.81-7.71Q210.81-5.47 211.72-4.46 212.62-3.44 214.77-3.44ZM243.72-6.76L243.72-6.76Q243.72-8.15 242.67-9.16 241.62-10.16 238.62-11.5L238.62-11.5Q235.13-12.94 233.7-13.96 232.27-14.99 231.56-16.3 230.86-17.6 230.86-19.41L230.86-19.41Q230.86-22.63 233.21-24.77 235.57-26.9 239.23-26.9L239.23-26.9Q243.09-26.9 245.43-24.66 247.78-22.41 247.78-18.9L247.78-18.9 243.48-18.9Q243.48-20.68 242.28-21.94 241.09-23.19 239.23-23.19L239.23-23.19Q237.33-23.19 236.24-22.2 235.15-21.22 235.15-19.56L235.15-19.56Q235.15-18.24 235.95-17.43 236.74-16.63 239.77-15.31L239.77-15.31Q244.58-13.43 246.31-11.63 248.04-9.84 248.04-7.08L248.04-7.08Q248.04-3.64 245.68-1.57 243.31 0.49 239.33 0.49L239.33 0.49Q235.2 0.49 232.64-1.88 230.08-4.25 230.08-7.89L230.08-7.89 234.42-7.89Q234.49-5.69 235.76-4.44 237.03-3.2 239.33-3.2L239.33-3.2Q241.48-3.2 242.6-4.16 243.72-5.13 243.72-6.76ZM255.02-32.81L259.32-32.81 259.32-26.42 263.3-26.42 263.3-22.92 259.32-22.92 259.32-6.54Q259.32-4.98 259.83-4.17 260.35-3.37 261.59-3.37L261.59-3.37Q262.45-3.37 263.32-3.66L263.32-3.66 263.28 0Q261.81 0.49 260.27 0.49L260.27 0.49Q257.71 0.49 256.37-1.34 255.02-3.17 255.02-6.52L255.02-6.52 255.02-22.92 251-22.92 251-26.42 255.02-26.42 255.02-32.81ZM277.87 0.49L277.87 0.49Q272.94 0.49 270.3-2.45 267.67-5.4 267.62-11.08L267.62-11.08 267.62-14.28Q267.62-20.19 270.19-23.55 272.77-26.9 277.38-26.9L277.38-26.9Q282.02-26.9 284.32-23.95 286.61-21 286.66-14.75L286.66-14.75 286.66-11.91 271.92-11.91 271.92-11.3Q271.92-7.06 273.51-5.13 275.11-3.2 278.12-3.2L278.12-3.2Q280.02-3.2 281.47-3.92 282.93-4.64 284.2-6.2L284.2-6.2 286.44-3.47Q283.63 0.49 277.87 0.49ZM277.38-23.19L277.38-23.19Q274.7-23.19 273.41-21.35 272.11-19.51 271.94-15.63L271.94-15.63 282.34-15.63 282.34-16.21Q282.17-19.97 280.99-21.58 279.8-23.19 277.38-23.19ZM302.72-26.56L302.75-22.36Q301.84-22.53 300.8-22.53L300.8-22.53Q297.47-22.53 296.16-18.9L296.16-18.9 296.16 0 291.84 0 291.84-26.42 296.03-26.42 296.11-23.73Q297.84-26.9 301.01-26.9L301.01-26.9Q302.04-26.9 302.72-26.56L302.72-26.56Z" opacity="1" transform="matrix(1,0,0,1,0,0)" fill="#ffffff" class="wordmark-text-0" data-fill-palette-color="quaternary" id="text-0"></path></svg></g></svg></g><g transform="matrix(1,0,0,1,0,33.48100710230739)"><svg viewBox="0 0 213.1584412271571 11.905435898330632" height="11.905435898330632" width="213.1584412271571"><g transform="matrix(1,0,0,1,0,0)"><svg width="213.1584412271571" viewBox="2.1 -32.4 580.01 32.4" height="11.905435898330632" data-palette-color="#ffffff"><path d="M12.92-25.83L12.92-6.59 16.97-6.59 16.97 0 8.67 0 2.1-6.47 2.1-25.93 8.67-32.4 16.97-32.4 16.97-25.83 12.92-25.83ZM22.8-6.59L22.8-25.83 18.68-25.83 18.68-32.4 27.05-32.4 33.59-25.93 33.59-6.47 27.05 0 18.68 0 18.68-6.59 22.8-6.59ZM49.97-32.4L69.68 0 58.2 0 38.57-32.4 49.97-32.4ZM47.97 0L38.57 0 38.57-29.32 47.97-13.92 47.97 0ZM60.28-32.4L69.68-32.4 69.68-3.08 60.28-18.55 60.28-32.4ZM86.18 0L75.39 0 75.39-32.4 86.18-32.4 86.18 0ZM103.02 0L87.89 0 87.89-6.47 93.23-6.47 93.23-10.57 103.02-10.57 103.02 0ZM109.49 0L109.49-10.3 98.5-32.4 109.1-32.4 120.31-9.55 120.31 0 109.49 0ZM131.44-32.4L120.99-11.82 115.74-22.46 121.06-32.4 131.44-32.4ZM153.45 0L153.45-23.66 164.68-23.66 164.68 0 153.45 0ZM145.01-25.34L145.01-32.4 173.13-32.4 173.13-25.34 145.01-25.34ZM197.69-19.65L197.69-32.4 208.58-32.4 208.58 0 197.76 0 197.76-13.16 189.76-13.16 189.76-19.65 197.69-19.65ZM188.05-32.4L188.05 0 177.26 0 177.26-32.4 188.05-32.4ZM235.38-13.31L225.06-13.31 225.06 0 214.26 0 214.26-32.4 225.06-32.4 225.06-19.56 235.38-19.56 235.38-13.31ZM233.48-26.12L226.76-26.12 226.76-32.4 243.63-32.4 243.63-23.02 233.48-23.02 233.48-26.12ZM243.63 0L226.76 0 226.76-6.47 232.84-6.47 232.84-9.72 243.63-9.72 243.63 0ZM282.25-19.02L282.25-25.93 274.25-25.93 274.25-32.4 286.77-32.4 293.26-25.93 293.26-19.34 290.02-16.09 293.26-12.84 293.26-6.47 286.77 0 274.25 0 274.25-6.47 282.25-6.47 282.25-13.38 274.25-13.38 274.25-19.02 282.25-19.02ZM261.75 0L261.75-32.4 272.54-32.4 272.54 0 261.75 0ZM319.36-13.31L309.03-13.31 309.03 0 298.24 0 298.24-32.4 309.03-32.4 309.03-19.56 319.36-19.56 319.36-13.31ZM317.46-26.12L310.74-26.12 310.74-32.4 327.61-32.4 327.61-23.02 317.46-23.02 317.46-26.12ZM327.61 0L310.74 0 310.74-6.47 316.82-6.47 316.82-9.72 327.61-9.72 327.61 0ZM357.15 0L352.8 0 352.8-12.13 338.79-12.13 332.3-18.63 332.3-25.93 338.79-32.4 342.45-32.4 342.45-20.9 357.35-20.9 363.62-14.4 363.62-6.47 357.15 0ZM352.8-26.56L344.16-26.56 344.16-32.4 357.13-32.4 362.74-26.76 362.74-23.32 352.8-23.32 352.8-26.56ZM332.3-6.47L332.3-9.72 343.09-9.72 343.09-5.86 351.1-5.86 351.1 0 337.74 0 332.3-6.47ZM375.7 0L375.7-23.66 386.93-23.66 386.93 0 375.7 0ZM367.26-25.34L367.26-32.4 395.38-32.4 395.38-25.34 367.26-25.34ZM431.68 0L412.47-32.4 423.94-32.4 432.63-17.99 439.47-29.71 439.47-13.4 431.68 0ZM451.84 0L441.05 0 441.05-32.4 451.84-32.4 451.84 0ZM422.52 0L412.44 0 412.44-29.39 422.52-12.48 422.52 0ZM488.59-32.4L488.59-6.47 482.12 0 473.79 0 473.79-6.47 477.79-6.47 477.79-32.4 488.59-32.4ZM468.1-32.4L468.1-6.47 472.08-6.47 472.08 0 463.78 0 457.29-6.47 457.29-32.4 468.1-32.4ZM518.42 0L514.07 0 514.07-12.13 500.06-12.13 493.56-18.63 493.56-25.93 500.06-32.4 503.72-32.4 503.72-20.9 518.61-20.9 524.89-14.4 524.89-6.47 518.42 0ZM514.07-26.56L505.43-26.56 505.43-32.4 518.39-32.4 524.01-26.76 524.01-23.32 514.07-23.32 514.07-26.56ZM493.56-6.47L493.56-9.72 504.35-9.72 504.35-5.86 512.36-5.86 512.36 0 499.01 0 493.56-6.47ZM529.62 0L529.62-6.91 532.87-6.91 532.87-25.51 529.62-25.51 529.62-32.4 546.91-32.4 546.91-25.51 543.66-25.51 543.66-6.91 546.91-6.91 546.91 0 529.62 0ZM562.43-32.4L562.43 0 558.13 0 551.64-6.47 551.64-25.93 558.13-32.4 562.43-32.4ZM571.32-25.93L564.14-25.93 564.14-32.4 575.64-32.4 582.11-25.93 582.11-19.41 571.32-19.41 571.32-25.93ZM575.64 0L564.14 0 564.14-6.47 571.32-6.47 571.32-11.21 582.11-11.21 582.11-6.47 575.64 0Z" opacity="1" transform="matrix(1,0,0,1,0,0)" fill="#ffffff" class="slogan-text-1" data-fill-palette-color="quaternary" id="text-1"></path></svg></g></svg></g></svg></g></svg></g><g transform="matrix(1,0,0,1,77.13130313616927,0)"><svg viewBox="0 0 58.89583495481857 62.724064226881765" height="62.724064226881765" width="58.89583495481857"><g><svg xmlns="http://www.w3.org/2000/svg" xmlns:xlink="http://www.w3.org/1999/xlink" version="1.1" x="0" y="0" viewBox="10 7.4 80 85.19999999999999" style="enable-background:new 0 0 100 100;" xml:space="preserve" height="62.724064226881765" width="58.89583495481857" class="icon-icon-0" data-fill-palette-color="quaternary" id="icon-0"><g fill="#ffffff" data-fill-palette-color="quaternary"><g fill="#ffffff" data-fill-palette-color="quaternary"><path class="" d="M78 7.4H22c-6.6 0-12 5.4-12 12v61.2c0 6.6 5.4 12 12 12h56c6.6 0 12-5.4 12-12V19.4C90 12.8 84.6 7.4 78 7.4zM83.3 51.1H69.6l-7.2 20.3c-0.2 0.7-0.9 1.1-1.6 1.1-0.1 0-0.1 0-0.2 0-0.7-0.1-1.4-0.7-1.5-1.5l-5.8-37.2c-2.2 3.6-5.2 9.7-5.2 15.5v6.9c0 1-0.7 1.8-1.7 1.8H31.5c-0.7 0-1.3-0.5-1.6-1.1l-1.6-4.4-1 4.2c-0.2 0.8-0.9 1.3-1.6 1.3l-9.2 0c0 0 0 0 0 0-0.9 0-1.7-0.8-1.7-1.8 0-1 0.7-1.8 1.7-1.8l7.9 0 2-8.3c0.2-0.8 0.8-1.3 1.5-1.3 0.7 0 1.4 0.4 1.7 1.1l3 8.5h12.1v-5.1c0-10.4 7.9-20.7 8.3-21.1 0.4-0.5 1.1-0.8 1.7-0.6 0.6 0.2 1.1 0.7 1.2 1.4l5.4 34.9 5.4-15.3c0.2-0.7 0.9-1.1 1.6-1.1h14.9c0.9 0 1.7 0.8 1.7 1.8S84.3 51.1 83.3 51.1z" fill="#ffffff" data-fill-palette-color="quaternary"></path></g><g fill="#ffffff" data-fill-palette-color="quaternary"><path d="M78 7.4H22c-6.6 0-12 5.4-12 12v61.2c0 6.6 5.4 12 12 12h56c6.6 0 12-5.4 12-12V19.4C90 12.8 84.6 7.4 78 7.4zM83.3 51.1H69.6l-7.2 20.3c-0.2 0.7-0.9 1.1-1.6 1.1-0.1 0-0.1 0-0.2 0-0.7-0.1-1.4-0.7-1.5-1.5l-5.8-37.2c-2.2 3.6-5.2 9.7-5.2 15.5v6.9c0 1-0.7 1.8-1.7 1.8H31.5c-0.7 0-1.3-0.5-1.6-1.1l-1.6-4.4-1 4.2c-0.2 0.8-0.9 1.3-1.6 1.3l-9.2 0c0 0 0 0 0 0-0.9 0-1.7-0.8-1.7-1.8 0-1 0.7-1.8 1.7-1.8l7.9 0 2-8.3c0.2-0.8 0.8-1.3 1.5-1.3 0.7 0 1.4 0.4 1.7 1.1l3 8.5h12.1v-5.1c0-10.4 7.9-20.7 8.3-21.1 0.4-0.5 1.1-0.8 1.7-0.6 0.6 0.2 1.1 0.7 1.2 1.4l5.4 34.9 5.4-15.3c0.2-0.7 0.9-1.1 1.6-1.1h14.9c0.9 0 1.7 0.8 1.7 1.8S84.3 51.1 83.3 51.1z" fill="#ffffff" data-fill-palette-color="quaternary"></path></g></g></svg></g></svg></g><g></g></svg></g></svg></g></svg></g></svg></g><defs></defs></svg><rect width="342.85155851775386" height="342.85155851775386" fill="none" stroke="none" visibility="hidden"></rect></g></svg></g></svg>